<svg xmlns="http://www.w3.org/2000/svg" viewBox="0 0 522 522"><defs><style>.cls-1{fill:#ddd;}</style></defs><title>Asset 20</title><g id="Layer_2" data-name="Layer 2"><g id="Layer_1-2" data-name="Layer 1"><path class="cls-1" d="M261,0C116.85,0,0,116.85,0,261S116.85,522,261,522,522,405.15,522,261,405.15,0,261,0ZM175.62,251.26,220,85.62a1.91,1.91,0,0,1,.76-1.05l73.48-49.28a1.84,1.84,0,0,1,2.8,1.08l8.05,32.29a85.44,85.44,0,0,0-19.25-2.06c-16.48,0-23.52-1.4-29,8.05-2.85,4.95-2.74,7-2.78,11q0,2.89,7.76,17.56c9.36,17.68,19.47,43.26,20.46,48.21a43.16,43.16,0,0,1,1.1,8.6c.24,3.87.37,7.75,1.45,7.75s4.48-4.24,6.17-9.09a33,33,0,0,0,2.19-11.14q0-25-14.9-55.92a.81.81,0,0,1,.62-1.16A95,95,0,0,1,289.51,90c1.05,0,18.53,1.71,20.71.24a2.26,2.26,0,0,0,.26-.16L350.7,251.29a1.83,1.83,0,0,1-1.78,2.27h-70.2a1.83,1.83,0,0,1-1.79-1.47L265,193a5,5,0,0,0-9.74,0l-11.93,59.14a1.83,1.83,0,0,1-1.79,1.47H177.39A1.83,1.83,0,0,1,175.62,251.26ZM315.13,441a1.17,1.17,0,0,1-1.14-.93L303.1,389.23a7.68,7.68,0,0,0-7.51-6.08H224.24a7.69,7.69,0,0,0-7.51,6.1L206,440.07a1.17,1.17,0,0,1-1.14.93h-79l46.86-174h68.8l-9.13,45.64a9.82,9.82,0,0,0,9.63,11.75h36.12a9.82,9.82,0,0,0,9.63-11.75L278.7,267h74.76L396,441Z"/></g></g></svg>