<svg xmlns="http://www.w3.org/2000/svg" viewBox="0 0 702.91 488.72"><defs><style>.cls-1{fill:#fff;}</style></defs><title>Asset 18</title><g id="Layer_2" data-name="Layer 2"><g id="Layer_1-2" data-name="Layer 1"><path class="cls-1" d="M285.39,399c.71,2-.59,3.68-3,3.75a5.72,5.72,0,0,1-6-3.5c-.81-2,.5-3.69,3-3.76A5.77,5.77,0,0,1,285.39,399Zm-28.05-3.85c.37,2.05,3.16,4.34,5.93,4.87,2.62,1,4.64-.12,4.27-2.16s-3-4.34-6-5.19c-2.56-.66-4.6.43-4.24,2.48Zm37.07-2.7c-2.28.77-3.36,2.74-2.36,5.05a4.77,4.77,0,0,0,5.72,2.48c2.19-.77,3.32-2.72,2.51-4.73S296.81,392.13,294.41,392.49ZM352.76,2.22C245-6.35,142.67,9.82,72.67,52.45,2.48,94.26-23.27,163.63,24.09,243c36,63.51,106.86,120.06,165.24,162,60,42.31,107.56,70.05,134.54,83.4,6.29,1.62,5.51-5.56,3.5-11.48-2.07-5.44-13.08-37.33-19.08-58.25-1.79-.28-42,17.27-82-28,.1.12-27.36-29.93-49.07-37.86.33.05-34.24-16.58-8.11-16.53-.15-.07,28.37,2.09,53.93,26.94,40.87,39.78,63.88,27.07,76,20.27-2.24-16.33,1.6-28,7.75-34.92-29.68-2.93-58-6.15-88-21.85-29.31-15.74-60.25-43.95-80.41-97.53-10.52-30.55-3.91-45.75,15.72-64.37-5-7.1-24.81-37.34-6.2-73.24,32.62-5.22,109.5,33.09,109.2,33,30.53-4.68,64-6.27,97-4.93a555.06,555.06,0,0,1,96.55,12.37c-.38-.35,78.48-29.68,110.73-21.61,16.43,33.53-4.26,59.36-9.47,65.71,19.07,18.15,28.39,32,17.43,59.33C548.55,283.78,517.51,310,487.9,325c-30.19,15-59,18.92-88.54,22.49,8.35,7.9,12.76,23,7.45,46.15-7.33,33.45-17.15,71.93-19,79.1-1.4,5.88-1.35,12.7,4.68,10.24,25.42-16.31,69.73-46.69,126.71-87.35,55.39-40.53,123.45-91.33,159.41-145.21C725.94,182.88,700.91,125.65,631.72,83,562.18,40.62,460.59,11,352.76,2.22ZM201.47,354.3c-.73,1.08.91,3.51,3.67,5.49,2.49,1.66,5.11,2.36,5.66,1,.72-1.08-.83-3.5-3.57-5.48C204.76,353.61,202,352.91,201.47,354.3Zm-15.69-8.48c.06,1.4,2.05,3.09,4.67,4.13,2.22,1.05,4.07.7,4-.8s-2-3.08-4.61-4.13C187.4,344.4,185.91,344.74,185.78,345.82Zm51.3,36.89c-.76,1.37,1.4,4.45,4.42,6.35,3.22,2.32,5.86,2.56,6.19.89.47-1.36-1.52-4.42-4.27-6.34C240.3,381.29,237.41,381,237.08,382.71Zm-18.47-15.08c-1,1.08.49,3.8,3.26,6.17s5.81,3.35,6.46,2.29c.77-1.39-.58-4.09-3.32-6.46-2.54-2.38-5.59-3.39-6.4-2Z"/></g></g></svg>