<svg xmlns="http://www.w3.org/2000/svg" viewBox="0 0 384.86 460.14"><defs><style>.cls-1{fill:#fff;}</style></defs><title>Asset 17</title><g id="Layer_2" data-name="Layer 2"><g id="Layer_1-2" data-name="Layer 1"><path class="cls-1" d="M192.62,119.22l-19.51-9.91-13.28,17.34L138,126.52,133.6,148l-20.12,8.54,3.34,21.64L100.2,192.37l9,20L96.44,230.07,109.2,247.8l-9,20L116.83,282l-3.35,21.65,20.12,8.53,4.4,21.44,21.83-.13,13.28,17.33,19.51-9.9,19.51,9.9,13.28-17.33,21.83.12,4.4-21.43,20.12-8.53L268.41,282,285,267.77l-9-20,12.76-17.73L276,212.35l9-20-16.62-14.23,3.35-21.65L251.64,148l-4.41-21.43-21.83.13-13.28-17.34Zm0,193.1-10.3-13.27L167,306l-3.11-16.55-16.82-.15,3.3-16.54-15.87-5.65,8-14.87-13.84-9.63L140,230.07l-11.36-12.51,13.84-9.64-8-14.86,15.87-5.66-3.31-16.54,16.82-.15L167,154.16l15.3,6.93,10.31-13.27,10.3,13.27,15.31-6.93,3.12,16.55,16.82.15-3.3,16.54,15.87,5.66-8,14.86,13.84,9.64-11.36,12.51,11.36,12.51-13.84,9.63,8,14.87-15.87,5.65,3.3,16.54-16.81.15L218.22,306l-15.3-6.92-10.31,13.27h0v0l6-6Zm129.8-202.91-12.67,1.83,9.88,8.15-12.74-1.24,7.59,10.31-12-4.47,4.4,12-10-8-.19,12.77-5.84-11.32-5.55,11.37.23-12.65-10.08,7.63,5.67-11.34-12.3,3.06L278.2,119l-12.64-1.07L277,112.44,265.15,108l12.56-2.55-10-8,12.77,1.2-7.28-10.56L285,92.94,281.3,80.67l9.64,8.43.76-12.78,5.77,11.42,5.39-11.47L303,88.92,312.88,81l-5.51,11.4,12.31-2.92-9.62,8.27,12.57,1.69-11.78,4.76Zm47,25.7L382.68,126l-10.77-11.91,12.84-9.67L373.13,93.37l11.73-11-13.11-9.24,9.37-13-14.93-5.83,5.39-15.09-15.75-.86.71-15.76L341.3,26.69l-3.95-15.27-13.7,7.91L316.59,5.2,304.41,15.3,295.54,2.21,284.43,13.5,264.43.74,243.71,12.35,223.36.11,202.81,12,182.32,0,161.89,12.12,141.27.33,121,12.75,100.1,1.5,90.66,14.16,79.09,3.35,71,16.92,58.1,7.74,52.39,22.46,37.87,16.21,36.09,31.88,20.4,30.16l3.22,15.46L8,49.2l7.57,14.16-14,7.76L12.29,83.06,0,93.38l12.41,10.23L1.3,115.19l13.1,9.31L3.81,136.59l13.28,8.87L6.4,157.31l13.05,9.19-11,11.56,12.79,9.54L9.88,198.83l12.47,10L10.61,219.6,22.67,230,10.61,240.44l11.75,10.8-12.47,10,11.35,11.22L8.45,282l11,11.56-13,9.19,10.7,11.84L3.83,323.45l10.57,12.1-13.12,9.3L12.4,356.43,0,366.67,12.28,377,1.54,388.94l14,7.75L8,410.85l15.63,3.58-3.23,15.46,15.7-1.71,1.76,15.67,14.53-6.24,5.69,14.73L71,443.17l8.09,13.58L90.67,446l9.42,12.69L121,447.39l20.24,12.42L161.89,448l20.42,12.12,20.49-12L223.36,460l20.35-12.25,20.72,11.62,20-12.77L295.54,458l8.89-13.07L316.61,455l7.08-14.13,13.7,7.91,3.94-15.28,15.25,4.12-.74-15.77,15.75-.9-5.43-15.08L381.08,400l-9.39-13,13.11-9.24-11.73-11,11.63-11.07L371.87,346l10.79-11.89L369.41,325,380,313.1l-13.17-9,10.85-11.7L364.73,283l11.17-11.39-12.63-9.74,11.54-11-12.28-10.2,12-10.6-12-10.59,12.28-10.2-11.54-11,12.63-9.75-11.17-11.39,12.92-9.36L366.8,156.05,380,147l-10.55-12,5.95,6.82v-12h0v12ZM348.76,364.85l-12.91,3.85,10,8.94-13.34,1.26,8,10.78L327.19,388l5.21,12.34-12.46-4.9,2,13.24L311,400.91,302,416.32l-15.42-9.56-12.24,13.3-14.24-11.2-13.17,12.42-13.69-11.86-13.57,12-13.44-12.14-13.6,11.92L179,409.25l-13.44,12.14-13.56-12-13.68,11.86-13.17-12.43L110.93,420l-12.25-13.3-15.41,9.57L74.19,400.9l-10.91,7.76,2-13.23-12.47,4.88L58.05,388l-13.28,1.69,8-10.77-13.34-1.26,10-8.95-12.92-3.84L48,349.32,36.41,334.05l12.9-14.19L38.42,304.1l13.17-13.94L40.75,274.35l13-14.09L42.45,244.81l12-14.74-12-14.74,11.32-15.44-13-14.09L51.61,170,38.46,156.05l10.88-15.76L36.44,126.1,48,110.82,36.48,95.31l12.91-3.87-10-8.94,13.33-1.26-8-10.77,13.28,1.71L52.84,59.84l12.47,4.89-2-13.24,10.93,7.74,9-15.4,15.42,9.56,12.25-13.31,14.24,11.21,13.16-12.43L152,50.73l13.57-12L179,50.89,192.62,39l13.6,11.92,13.45-12.14,13.55,12,13.69-11.86,13.16,12.43,14.24-11.2,12.26,13.3L302,43.85l9.07,15.39L322,51.48l-2,13.24,12.47-4.89-5.23,12.33,13.28-1.68-8,10.76,13.34,1.27-10,8.94,12.92,3.84-11.47,15.54,11.53,15.26-12.89,14.19L346.81,156,333.65,170l10.83,15.81-13,14.1,11.31,15.45-12,14.73,12,14.74-11.31,15.45,13,14.08-10.83,15.81,13.16,13.94-10.88,15.77,12.9,14.19-11.54,15.27Z"/></g></g></svg>