<svg xmlns="http://www.w3.org/2000/svg" viewBox="0 0 446.21 463.99"><defs><style>.cls-1{fill:#fff;}</style></defs><title>Asset 16</title><g id="Layer_2" data-name="Layer 2"><g id="Layer_1-2" data-name="Layer 1"><path class="cls-1" d="M415.11,16,404.73,0,394.35,16,384,0,373.58,16,363.2,0,352.82,16,342.44,0,332.06,16,321.68,0,311.3,16,300.92,0,290.53,16,280.15,0,269.77,16,259.39,0,249,16,238.63,0,228.25,16,217.87,0,207.49,16,197.11,0,186.72,16,176.34,0,166,16,155.58,0,145.2,16,134.82,0,124.44,16,114.06,0,103.68,16,93.29,0,82.91,16,72.53,0,62.15,16,51.77,0,41.39,16,31,0l-.94,16L27.93.12l.33,16L24.81.49l1.72,15.94L21.66,1.15l3.24,15.7L18.54,2.14l4.85,15.28L15.46,3.48,22,18.11,12.52,5.2l8.25,13.74L9.76,7.29l9.91,12.6L7.27,9.73,18.72,21,5.12,12.47l12.77,9.68L3.34,15.44l13.87,8L2,18.57,16.68,24.9,1,21.78l15.33,4.66L.33,25l15.73,3.06L0,28.24,16,29.8,0,31.41l16,.17L.31,34.51l16-1.11L.81,37.53l15.87-2.27L1.52,40.47l15.7-3.29L4.88,51.84l18.23,5.89L10.31,72l18,6.46L15.1,92.28l17.81,7L19.23,112.73l17.59,7.6-14.11,13L40,141.45,25.53,154l17.07,8.71-14.91,12L44.47,184,29.19,195.51l16.47,9.78L30,216.35l16.15,10.3-16,10.56L46,248l-16.31,10,15.46,11.31-16.63,9.52,15.1,11.8-16.93,9L41.4,311.94l-17.2,8.43,14.31,12.74L21.05,341,35,354.18,17.24,361.5l13.47,13.62-17.93,6.76,13,14L7.67,402.1l12.58,14.46L1.92,422.14l15,5.65L1.14,425l15.33,4.68L.53,428l15.64,3.55L.14,431,16,433.31l-16,.85,16,.9L.14,437.36l16-.62L.6,440.6l15.87-2.26-15.06,5.5,15.52-4L2.61,447l14.93-5.82L4.19,450.07l14.1-7.61L6.17,452.94l13-9.35L8.5,455.53,20.21,444.6l-9.09,13.2,10.26-12.32L14,459.7l8.71-13.46-5.69,15,7.13-14.36-4,15.52,5.6-15-2.46,15.84,4.14-15.49-1,16,2.79-15.79.31,16L31,448l10.38,16,10.38-16,10.38,16,10.38-16,10.38,16,10.38-16,10.39,16,10.38-16,10.38,16,10.38-16,10.38,16,10.38-16L166,464l10.38-16,10.38,16,10.39-16,10.38,16,10.38-16,10.38,16,10.38-16L249,464l10.38-16,10.38,16,10.38-16,10.38,16,10.39-16,10.38,16,10.38-16,10.38,16,10.38-16,10.38,16,10.38-16,10.38,16L384,448l10.39,16,10.38-16,10.38,16,.93-16,2.15,15.89-.33-16,3.45,15.66-1.71-15.94,4.86,15.27-3.23-15.7,6.36,14.72-4.85-15.28,7.92,13.94-6.53-14.64,9.48,12.93L425.38,445l11,11.67-9.87-12.62,12.37,10.19L427.45,443,441,451.55l-12.74-9.73,14.53,6.77L429,440.51l15.24,5-14.7-6.39,15.71,3.17-15.32-4.71,16,1.47-15.72-3.11,16-.12-15.95-1.6,15.95-1.58-16-.2,15.77-2.91-16,1.09,15.5-4.12-15.88,2.27,15.17-5.2L429,426.81l12.34-14.66-18.24-5.89L435.91,392l-18-6.47,13.25-13.84-17.82-7L427,351.26l-17.58-7.6,14.11-13-17.34-8.15L420.68,310l-17.06-8.71,14.9-12L401.75,280,417,268.48l-16.48-9.78,15.64-11.06L400,237.34l16-10.56L400.21,216l16.32-10-15.47-11.31,16.63-9.52L402.6,173.3l16.92-9-14.71-12.27,17.2-8.44L407.7,130.88,425.16,123l-13.89-13.18,17.7-7.32L415.5,88.86l17.93-6.75-13-14,18.13-6.17L426,47.43l18.32-5.58-15-5.66L445.08,39l-15.34-4.67L445.68,36,430,32.49l16,.46L430.2,30.69l16-.89-16-.86,15.86-2.35-16,.66,15.54-3.91-15.86,2.32,15-5.56-15.5,4.07,14.29-7.24L428.64,22.8,442,13.87l-14.07,7.67L440,11l-13,9.39,10.65-12-11.69,11L435,6.18,424.76,18.51l7.38-14.23-8.69,13.47,5.67-15L422,17.12,426,1.6l-5.6,15L422.88.78l-4.14,15.49,1-16L417,16.06l-.32-16Zm-273,385.19-1.64-16-1.64,16-1.64-16-1.64,16-1.64-16-1.65,16-1.64-16-1.64,16-1.64-16-1.64,16-1.64-16-1.64,16-1.64-16-1.65,16-1.64-16-1.64,16-1.64-16-1.64,16-1.64-16-1.64,16-1.64-16-1.64,16-1.65-16-1.64,16-1.64-16-1.64,16-1.64-16-1.64,16-1.64-16-1.64,16-1.65-16-1.64,16-1.64-16-1.64,16-1.64-16-1.64,16,6.3-8.87L74.46,386.1l16.72-3.19L76.3,374.64,93,371.24l-15-8.08,16.63-3.61-15.08-7.89,16.59-3.82L81,340.14l16.55-4L82.22,328.6l16.49-4.24L83.33,317l16.44-4.44-15.46-7.12,16.38-4.65L85.14,293.9l16.32-4.85-15.63-6.74,16.26-5.05-15.72-6.55,16.2-5.24-15.79-6.36,16.13-5.44L87,247.51l16.06-5.65-15.94-6,16-5.84-16-5.77,15.93-6L87,212.68l15.84-6.23-16.15-5.38,15.77-6.42-16.22-5.18,15.69-6.61-16.14-7,9.34,9.56,1.5-16,1.5,16,1.51-16,1.5,16,1.5-16,1.5,16,1.5-16,1.5,16,1.51-16,1.5,16,1.5-16,1.5,16,1.5-16,1.5,16,1.51-16,1.5,16,1.5-16,1.5,16,1.5-16,1.5,16,1.51-16,1.5,16,1.5-16,1.5,16,1.5-16,1.51,16,1.5-16,1.5,16,1.5-16,1.5,16,1.5-16,1.51,16,1.5-16,1.5,16,1.5-16-6.17,10.22L157.33,183l-15.82,6.28,16.12,5.45-15.86,6.17,16.08,5.56L142,212.54l16,5.68-16,5.94,16,5.79-16,5.83,16,5.9-16,5.72,15.92,6L141.84,259l15.88,6.13-16.11,5.49,15.84,6.24-16.15,5.38,15.79,6.35-16.18,5.27,15.75,6.45-16.23,5.16,15.7,6.57-16.25,5,15.65,6.69-16.29,4.92,15.6,6.79-16.33,4.81,15.56,6.9-16.36,4.69,15.5,7-16.39,4.56,15.45,7.14-16.43,4.44,15.4,7.25-16.46,4.32L150.13,394l-8-8.79v16ZM119.65,155.9l-1.13-16-2.9,15.79.66-16L111.66,155,114,139.12l-6.21,14.81,4-15.55-7.66,14.12,5.49-15.1-9,13.34,6.83-14.53-10.08,12.5,8-13.91L94.43,146.44l9.12-13.22L91.61,144l10.09-12.5L89,141.3,100,129.56l-13.35,8.93,11.74-11-13.93,8,12.44-10.17-14.41,7.09,13-9.35-14.83,6.17,13.62-8.52L79.1,126l14.12-7.66-15.48,4.29,14.56-6.79-15.71,3.35,14.94-5.89-15.88,2.38,15.27-5-16,1.41,15.55-4-16,.5,15.78-2.95-16-.56,15.94-1.87-16-1.68,16-.73-15.8-2.84,16,.48-15.53-4,16,1.75-15.15-5.3,15.76,3.07L76.8,87.31l15.43,4.44-14-7.86,15,5.84L80,80.58l14.32,7.25L82.09,77.43,95.6,86.09,84.51,74.49l12.54,10L87.24,71.8l11.4,11.31-8.38-13.7,10.1,12.48L93.53,67.37l8.68,13.5L97,65.69l7.17,14.36L100.6,64.4l5.62,15L104.29,63.5,108.37,79,108,63l2.58,15.85,1.13-16,1.22,16L115.7,63l-.31,16.06,4.24-15.5-1.81,16,5.65-15-3.25,15.73,7-14.47-4.64,15.38,8.21-13.81-5.93,14.93,9.35-13.06L127,83.57l10.39-12.25-8.3,13.75,11.34-11.38L131.1,86.75l12.19-10.47-10.35,12.3,13-9.5L134.65,90.55l13.65-8.48L136.2,92.65l14.25-7.42L137.6,94.86l14.77-6.32-13.56,8.63L154,92l-14.17,7.57,15.56-4L140.71,102l15.82-2.79-15.16,5.31,16-1.57-15.52,4.13,16.06-.33-15.8,2.93,16,.72-16,1.75,16,1.77-16,.67,15.8,2.85-16-.43,15.56,4-16-1.57,15.24,5-15.82-2.73,14.82,6.17L140.09,124l14.31,7.28-15.22-5.1,13.69,8.38-14.76-6.3,13,9.47-14.19-7.52L149,140.75,135.51,132l11.12,11.57L134,133.7l10,12.55L132.37,135.2l8.74,13.46-10.49-12.15L138,150.78l-9.18-13.16,5.81,15-7.74-14.06L131,154l-6.16-14.82,2.44,15.86-4.49-15.41.68,16-2.78-15.81ZM377.27,395.76l-9.21-10.57-1.64,16-1.64-16-1.64,16-1.64-16-1.64,16-1.64-16-1.64,16-1.65-16-1.64,16-1.64-16-1.64,16-1.64-16-1.64,16-1.64-16-1.64,16-1.65-16-1.64,16-1.64-16-1.64,16-1.64-16-1.64,16-1.64-16-1.64,16-1.64-16-1.65,16-1.64-16-1.64,16-1.64-16-1.64,16-1.64-16-1.64,16-1.64-16-1.65,16-1.64-16-1.64,16,4.94-12.53-14.82,2.55,15.61-4.45-16.19-1.21,15.63-4.38-16.18-1.28,15.65-4.32-16.18-1.34L314.74,370l-16.17-1.4,15.68-4.2-16.17-1.46,15.7-4.15-16.16-1.52,15.71-4.09-16.16-1.58,15.73-4-16.15-1.64,15.74-4-16.15-1.7,15.76-3.91L296,334.53l15.77-3.85-16.13-1.82,15.79-3.8-16.13-1.88,15.8-3.74-16.12-1.94,15.81-3.68-16.11-2,15.83-3.62-16.11-2.06,15.84-3.57-16.09-2.12L310,297l-16.09-2.18,15.87-3.45-16.08-2.22,15.89-2.58-16.05-1.33,15.89-2.62-16.05-1.25,15.87-2.73-16.07-1.11L309,274.56l-16.08-.87,15.78-3.2-16.1-.54,15.71-3.57-16.11-.11,15.59-4-16.1.45L307.09,258,291,259.17l15.17-5.4-16,2L305,249.48l-15.8,3.11,14.29-7.44-15.47,4.48,13.49-8.8L286.67,247,299,236.59l-13.9,8.11,10.61-12.1-12.4,10.25,8.36-13.75-10.36,12.32,5.71-15-8,14,3-15.81-5.54,15.11.53-16.08-3.37,15.74-1.51-16-1.61,16-3.14-15.79,0,16.1-4.89-15.34,2,16-6.88-14.56,4.26,15.53-9-13.36,6.64,14.67-11-11.75,8.9,13.42-12.71-9.88,10.82,11.91-14-7.94,12.34,10.35L239,242.5l13.44,8.87L237,246.81l14.22,7.57-15.78-3.22,14.76,6.44-16-2.1L249.41,261l-16.07-1.17,15.42,4.68-16.11-.41,15.61,4-16.11.23,15.74,3.44-16.09.77,15.83,3-16.06,1.22,15.91,2.55-16,1.6,16,2.21-16,1.91,16,1.93-16,3,16,2.75-16,3,16,2.73-16,3,16,2.72-16,3,16,2.71-16,3,16,2.7-15.95,3.05,16,2.68-15.95,3.07,16,2.67-16,3.08,16,2.66-15.94,3.1,16,2.64L232,341.67l16,2.63-15.95,3.12,16,2.62-15.94,3.12,16,2.61-15.94,3.14,16,2.6-15.93,3.15,16,2.58-15.94,3.16,16,2.57-15.93,3.18,16,2.55-15.92,3.19,16,2.54-15.92,3.2,16,2.53-14.93-.84,5.36,11.86-1.64-16-1.64,16-1.64-16-1.65,16-1.64-16-1.64,16-1.64-16-1.64,16-1.64-16-1.64,16-1.64-16-1.64,16-1.65-16-1.64,16-1.64-16-1.64,16-1.64-16-1.64,16-1.64-16-1.64,16-1.65-16-1.64,16-1.64-16-1.64,16-1.64-16-1.64,16-1.64-16-1.64,16-1.64-16-1.65,16-1.64-16-1.64,16-1.64-16-1.64,16-1.64-16L172.43,395l16.07-7.21-15.68-6.61,16.25-5.06-15.71-6.56,16.23-5.12-15.73-6.5,16.21-5.19-15.76-6.43,16.19-5.25-15.78-6.38,16.16-5.31L175.08,323l16.14-5.38-15.83-6.25L191.52,306l-15.85-6.19,16.1-5.51-15.87-6.13L192,282.58l-15.9-6.08,16.07-5.62-15.92-6,16-5.68-15.94-6,16-5.75-16-5.9,16-5.8-16-5.84,16-5.86-16-5.78,16-5.92-16-5.72,15.93-6-16-5.66,15.91-6L176,183.38l15.69-4.17-6.35-9.78,1.44,16,1.44-16,1.43,16,1.44-16,1.44,16,1.44-16,1.44,16,1.44-16,1.44,16,1.43-16,1.44,16,1.44-16,1.44,16,1.44-16,1.44,16,1.44-16,1.43,16,1.44-16,1.44,16,1.44-16,1.44,16,1.44-16,1.43,16,1.44-16,1.44,16,1.44-16,1.44,16,1.44-16,1.44,16,1.43-16,1.44,16,1.44-16,1.44,16,1.44-16,1.44,16,5.33-15-11.89,7.73,16,.9-16,.7,16,.9-16,.7,16,.89-16,.71,16,.89-16,.72,16,.88-16,.72,16,.88-16,.72,16,.88-16,.72,16,.88-16,.72,16,.87-16,.73,16,.87-16,.73,16,.87-16,.73,16,.87-16,.74,16,.86L229,199l16,.86-16,.74,16,.86-16,.74,16,.86-16,.75,16,.85-16,.75,16,.85-16,.95,8-8.17,0,16,0-16,0,16,0-16,0,16,0-16,0,16,0-16,0,16,0-16,0,16,0-16,0,16,0-16,0,16,0-16,0,16,0-16,0,16,0-16,0,16,0-16,0,16,0-16,0,16,0-16,0,16,0-16,0,16,0-16,0,16,0-16,0,16,0-16,0,16-7.29-11.24,15.28,5-13.54-8.68,15,5.91-13-9.53,14.56,6.84L236.4,193l14.12,7.72-11.71-11,13.63,8.55-11-11.72,13.09,9.35-10.3-12.36,12.51,10.12-9.54-13,11.87,10.86L250.33,178l11.18,11.57-7.87-14,10.43,12.25-7-14.5,9.62,12.89-6-14.92,8.77,13.48-5-15.28,7.87,14-4-15.58,6.93,14.52-3-15.81,6,14.94-2-16,5,15.3-.91-16.07,4,15.59.11-16.09,3,15.8,1.1-16,2.05,16,4.07-15.92,2.87,16.18,5.37-15.53,1.37,16.37,6.92-14.9-.48,16.41,8.71-13.92-2.7,16.2,10.66-12.49L322.23,188l12.52-10.61-7.67,14.52,14.1-8.42-9.89,13.11,15.21-6.18L334.86,202l15.88-4.17L337.82,208l16.23-2.47-13.82,8.88,16.39-1.11-14.44,7.84,16.43,0-14.87,7,16.41.8L345,235.19l16.36,1.46L346,242.42l16.32,2-15.53,5.36L363,252.09l-15.63,5,16.21,2.64-15.71,4.79,16.18,2.86L348.28,272l16.16,3-15.82,4,16.14,2.36L349,285.48l16.15,2.26-15.75,4.2,16.16,2.14-15.72,4.31,16.18,2-15.7,4.42,16.19,1.91-15.66,4.53,16.21,1.8-15.63,4.64,16.21,1.69L352,324.16l16.22,1.57-15.56,4.86,16.24,1.46-15.53,5,16.25,1.35-15.49,5.07,16.26,1.23L355,349.86,371.22,351l-15.42,5.29,16.27,1-15.38,5.41,16.28.88-15.34,5.52,16.28.76-15.3,5.63,16.29.65-15.26,5.74,16.3.53-15.22,5.84,16.3.42Z"/></g></g></svg>