<svg xmlns="http://www.w3.org/2000/svg" viewBox="0 0 281.84 244.87"><defs><style>.cls-1{fill:#191919;}</style></defs><title>Asset 7</title><g id="Layer_2" data-name="Layer 2"><g id="Layer_1-2" data-name="Layer 1"><path class="cls-1" d="M257.88,226.12a110.34,110.34,0,0,1-14.83,9.76,28,28,0,0,1-8.51,2.93A20.46,20.46,0,0,1,230,239a21.46,21.46,0,0,1-2.26-.28,10.25,10.25,0,0,1-2.28-.56,10,10,0,0,1-3.88-2.69,20.46,20.46,0,0,1-2.66-3.75c-1.47-2.64-2.58-5.39-3.83-8s-2.6-5.22-4.64-7a6.25,6.25,0,0,0-3.45-1.56,11.73,11.73,0,0,0-4,.45,41.19,41.19,0,0,0-8,3.22c-2.59,1.32-5.12,2.78-7.62,4.3-5,3.05-9.86,6.35-14.73,9.65-2.44,1.66-4.88,3.32-7.38,4.93-1.25.8-2.51,1.59-3.84,2.34a21.63,21.63,0,0,1-2.1,1l-.57.24-.66.21c-.44.12-.77.16-1.16.25-.74.17-1.54.25-2.33.35a12.35,12.35,0,0,1-2.5-.05,10.69,10.69,0,0,1-4.66-1.81,39.17,39.17,0,0,1-6.78-6.19c-4-4.41-7.74-9-11.52-13.5-1.89-2.24-3.76-4.59-5.65-6.74l-1.42-1.52c-.48-.5-1-.93-1.56-1.4a36.63,36.63,0,0,0-3.34-2.58,60.78,60.78,0,0,0-15.48-7.27,107.41,107.41,0,0,0-16.88-3.91,143.09,143.09,0,0,0-34.72-.91,108.13,108.13,0,0,0-17,3,59.14,59.14,0,0,0-15.62,6.36,26.85,26.85,0,0,0-6,5.18l-1.06,1.56a19.62,19.62,0,0,0-1,1.77c-.65,1.24-1.23,2.5-1.76,3.77a31.52,31.52,0,0,0-2.1,7.84,18.82,18.82,0,0,0-.1,3.89,12.67,12.67,0,0,0,.75,3.59,9.13,9.13,0,0,0,1.71,2.94,8.88,8.88,0,0,0,2.65,2,11.9,11.9,0,0,0,3.4,1,18.65,18.65,0,0,0,3.82.09,33.8,33.8,0,0,0,8-1.68c1.32-.41,2.63-.94,3.93-1.46l1.94-.85c.66-.27,1.22-.61,1.83-.92a70.18,70.18,0,0,0,13.58-10c4.27-3.87,8.34-8,12.32-12.29,7.93-8.55,15.42-17.57,22.72-26.74,14.58-18.38,28.37-37.43,41.92-56.65s26.76-38.71,39.91-58.25c3.26-4.88,6.69-9.84,10.21-14.64s7.25-9.5,11.1-14.09a181,181,0,0,1,25.77-25.39A101.09,101.09,0,0,1,226.36,6.13a66.33,66.33,0,0,1,8.77-3.72c1.5-.55,3.1-.93,4.67-1.35.79-.2,1.62-.31,2.43-.47l1.22-.22L244.7.24a30.42,30.42,0,0,1,20,4.35,33.13,33.13,0,0,1,7.64,7l1.51,2c.49.68.88,1.34,1.32,2s.84,1.36,1.24,2.06.81,1.39,1.17,2.13a39.19,39.19,0,0,1,3.51,9.45,29.44,29.44,0,0,1,.44,10.56,32.41,32.41,0,0,1-3.21,9.93,46.72,46.72,0,0,1-5.43,8.25,92,92,0,0,1-13.36,13.08C254.82,75,250,78.56,245,81.9s-10,6.53-15.1,9.63c-2.54,1.55-5.1,3.06-7.65,4.57s-5.26,3-7.93,4.41a289,289,0,0,1-33,14.4q-16.84,6.15-34.21,10.61a282.81,282.81,0,0,1-35.23,6.84c-11.93,1.41-24,2.08-36.28.62a67.11,67.11,0,0,1-18.13-4.59,40.17,40.17,0,0,1-8.42-4.86,30.3,30.3,0,0,1-6.85-7.25,29.47,29.47,0,0,1-4-9.09A37.34,37.34,0,0,1,37,97.58a51.06,51.06,0,0,1,3.88-18.29,91.85,91.85,0,0,1,8.48-16.11A145,145,0,0,1,60.13,48.79a250.31,250.31,0,0,1,25-25.31,301.65,301.65,0,0,1,27.8-22,.5.5,0,0,1,.6.8h0c-4.62,3.63-9.1,7.45-13.5,11.34s-8.72,7.87-12.92,12A248.91,248.91,0,0,0,63.68,51.65,148.23,148.23,0,0,0,53.84,66a86.4,86.4,0,0,0-7.4,15.4,46,46,0,0,0-2.91,16.19c.13,5.35,1.53,10.68,4.47,14.75a26.86,26.86,0,0,0,12.38,9.09A60.07,60.07,0,0,0,76.5,125c11.23,1.09,22.8.21,34.21-1.42a288.19,288.19,0,0,0,34-7.21q16.81-4.59,33.11-10.85a279.33,279.33,0,0,0,31.65-14.16c2.54-1.36,5-2.75,7.49-4.22s5-3,7.51-4.51c5-3,9.89-6.15,14.68-9.38S248.62,66.7,253,63.13a82.23,82.23,0,0,0,12-11.48c3.41-4.12,5.94-8.63,6.61-13.22s-.44-9.39-2.84-14.08c-.27-.59-.59-1.17-.92-1.75s-.64-1.17-1-1.74-.71-1.18-1.08-1.7l-1.1-1.52a23.58,23.58,0,0,0-5.21-5A18.9,18.9,0,0,0,253,10a22.32,22.32,0,0,0-7.33-.38l-1,.08-.95.16c-.64.12-1.28.19-1.92.34a38.78,38.78,0,0,0-3.82,1,55.55,55.55,0,0,0-7.53,3.06,89.14,89.14,0,0,0-14.18,9,171.64,171.64,0,0,0-24.78,23.85q-5.66,6.59-10.92,13.53c-3.51,4.66-6.84,9.35-10.18,14.22C157,94.29,143.58,113.66,129.8,132.82S101.94,171,87,189.34c-7.47,9.18-15.14,18.22-23.33,26.86-4.11,4.31-8.33,8.54-12.83,12.53A75.6,75.6,0,0,1,36,239.46c-.71.35-1.43.75-2.13,1l-2.12.9c-1.44.55-2.87,1.12-4.37,1.56a38.52,38.52,0,0,1-9.32,1.85,23.89,23.89,0,0,1-5-.19,17.87,17.87,0,0,1-5-1.55,14.58,14.58,0,0,1-4.32-3.34,14.62,14.62,0,0,1-2.67-4.68,17.9,17.9,0,0,1-1-5,24.48,24.48,0,0,1,.17-4.93,36.67,36.67,0,0,1,2.54-9.16c.62-1.43,1.29-2.84,2-4.21.4-.68.7-1.34,1.19-2l1.46-2.07a31.41,31.41,0,0,1,7.36-6.23,63.45,63.45,0,0,1,17.08-6.71,112.64,112.64,0,0,1,17.79-2.85,147.12,147.12,0,0,1,35.76,1.44,111.33,111.33,0,0,1,17.44,4.31,63.83,63.83,0,0,1,16.28,8,36.94,36.94,0,0,1,3.61,2.87c.57.52,1.17,1,1.71,1.57l1.56,1.73c2,2.3,3.74,4.59,5.61,6.88,3.71,4.57,7.38,9.19,11.23,13.54a36.58,36.58,0,0,0,6.13,5.8c2.19,1.59,4.59,1.81,7.41,1.22.33-.07.74-.12,1-.21l.4-.11.45-.18c.6-.25,1.23-.57,1.86-.91,1.25-.68,2.49-1.43,3.73-2.2,2.47-1.55,4.93-3.17,7.39-4.79,4.92-3.23,9.86-6.48,15-9.5,2.56-1.5,5.15-2.95,7.83-4.27a43.4,43.4,0,0,1,8.44-3.26,13.15,13.15,0,0,1,4.72-.43,8,8,0,0,1,4.45,2.06c2.43,2.16,3.76,5,5,7.66s2.29,5.45,3.66,8,3.12,4.87,5.66,5.83a9.36,9.36,0,0,0,2,.52c.7.15,1.41.2,2.12.28a18.91,18.91,0,0,0,4.25-.14,27,27,0,0,0,8.15-2.69,109.25,109.25,0,0,0,14.8-9.44h0a.5.5,0,0,1,.59.81Z"/></g></g></svg>