<svg xmlns="http://www.w3.org/2000/svg" viewBox="0 0 274.9 240.53"><defs><style>.cls-1{fill:#191919;}</style></defs><title>Asset 8</title><g id="Layer_2" data-name="Layer 2"><g id="Layer_1-2" data-name="Layer 1"><path class="cls-1" d="M255.22,223.92a109.13,109.13,0,0,1-14.81,9.62,27.74,27.74,0,0,1-8.35,2.82,19.3,19.3,0,0,1-8.77-.63,9.35,9.35,0,0,1-3.6-2.54,19.4,19.4,0,0,1-2.54-3.63c-1.43-2.59-2.51-5.34-3.75-8s-2.6-5.35-4.82-7.29a7,7,0,0,0-3.89-1.78,12.5,12.5,0,0,0-4.34.44,42,42,0,0,0-8.18,3.24c-2.63,1.32-5.19,2.77-7.71,4.29-5,3-9.94,6.31-14.84,9.58-2.45,1.64-4.89,3.28-7.38,4.86-1.24.79-2.5,1.57-3.79,2.28a12.09,12.09,0,0,1-4.14,1.6,13.17,13.17,0,0,1-4.43.25,9.19,9.19,0,0,1-4.12-1.63,37.82,37.82,0,0,1-6.49-6c-3.94-4.38-7.64-9-11.39-13.51-1.88-2.27-3.71-4.59-5.63-6.8l-1.49-1.62c-.5-.53-1.08-1-1.62-1.48a35.11,35.11,0,0,0-3.47-2.71,62.17,62.17,0,0,0-15.83-7.57A108.48,108.48,0,0,0,82.7,193.6a144.37,144.37,0,0,0-35.18-1.15,110.83,110.83,0,0,0-17.38,2.91,61.25,61.25,0,0,0-16.27,6.52,29,29,0,0,0-6.63,5.65A35.4,35.4,0,0,0,3,215.18a34,34,0,0,0-2.3,8.44A21.81,21.81,0,0,0,.59,228a14.87,14.87,0,0,0,.86,4.24,11.5,11.5,0,0,0,2.14,3.72,11.37,11.37,0,0,0,3.4,2.6,14.86,14.86,0,0,0,4.13,1.26,21.09,21.09,0,0,0,4.35.13A35.88,35.88,0,0,0,24,238.17a51.42,51.42,0,0,0,8.12-3.36,73,73,0,0,0,14.17-10.35c4.37-3.93,8.51-8.12,12.54-12.4,8-8.59,15.62-17.62,23-26.8,14.73-18.38,28.64-37.4,42.3-56.59s27-38.63,40.23-58.11c3.3-4.88,6.68-9.71,10.2-14.45s7.21-9.34,11-13.84a176.44,176.44,0,0,1,25.33-24.68A95.58,95.58,0,0,1,225.83,8,62.06,62.06,0,0,1,234,4.55c1.4-.51,2.85-.83,4.29-1.21.72-.17,1.47-.27,2.2-.41l1.1-.19,1.11-.11a26.1,26.1,0,0,1,17.2,3.79,28.68,28.68,0,0,1,6.53,6.1,49.73,49.73,0,0,1,4.73,7.55,35.1,35.1,0,0,1,3.1,8.37,24.94,24.94,0,0,1,.34,9,27.64,27.64,0,0,1-2.78,8.5,42.56,42.56,0,0,1-4.94,7.42A87.86,87.86,0,0,1,254.2,65.66c-4.59,3.74-9.38,7.18-14.27,10.49S230.05,82.6,225,85.67s-10.09,6.12-15.32,8.87a283.45,283.45,0,0,1-32.35,14.32q-16.59,6.18-33.72,10.71a285.78,285.78,0,0,1-34.68,7c-11.68,1.51-23.56,2.27-35.33,1a64,64,0,0,1-17.22-4.16,30.81,30.81,0,0,1-13.95-10.73,26.41,26.41,0,0,1-3.69-8.1,34.49,34.49,0,0,1-1.17-8.81A49,49,0,0,1,41,78.39,88.93,88.93,0,0,1,49,62.6,144.62,144.62,0,0,1,59.34,48.24,247.6,247.6,0,0,1,83.66,22.6,327.57,327.57,0,0,1,110.83,0a0,0,0,0,1,.07,0,0,0,0,0,1,0,.07,327.47,327.47,0,0,0-27,22.71A248.84,248.84,0,0,0,59.69,48.52,146.08,146.08,0,0,0,49.44,62.87a89.21,89.21,0,0,0-7.9,15.71,48.58,48.58,0,0,0-3.35,17.15A29.63,29.63,0,0,0,43,112.28a30.25,30.25,0,0,0,13.7,10.46,62.82,62.82,0,0,0,17,4.06c11.68,1.26,23.5.47,35.15-1.06a286.64,286.64,0,0,0,34.55-7q17.06-4.55,33.6-10.76a283.5,283.5,0,0,0,32.25-14.25c5.2-2.73,10.23-5.79,15.27-8.83s10-6.21,14.88-9.49,9.65-6.72,14.2-10.42a86.71,86.71,0,0,0,12.6-12.22c3.69-4.49,6.7-9.71,7.54-15.47a24,24,0,0,0-.33-8.61,34.22,34.22,0,0,0-3-8.16,49.19,49.19,0,0,0-4.63-7.41,27.88,27.88,0,0,0-6.31-5.91A25.31,25.31,0,0,0,242.83,3.5l-1.09.11-1.07.18c-.72.14-1.44.23-2.15.4-1.41.37-2.83.69-4.21,1.19a61.32,61.32,0,0,0-8.09,3.36,95.71,95.71,0,0,0-14.76,9.52,175.22,175.22,0,0,0-25.22,24.55q-5.72,6.72-11,13.79c-3.51,4.72-6.89,9.53-10.19,14.41-13.28,19.47-26.63,38.89-40.3,58.08s-27.62,38.2-42.39,56.58c-7.39,9.18-15,18.21-23,26.81-4.05,4.29-8.2,8.48-12.6,12.42a73,73,0,0,1-14.3,10.43,51.78,51.78,0,0,1-8.2,3.37,36.34,36.34,0,0,1-8.7,1.77,21.55,21.55,0,0,1-4.47-.14A15.11,15.11,0,0,1,6.75,239a12,12,0,0,1-3.57-2.73A12.09,12.09,0,0,1,1,232.4,15,15,0,0,1,.06,228a21.46,21.46,0,0,1,.14-4.46A33.85,33.85,0,0,1,2.54,215a35.86,35.86,0,0,1,4.3-7.78,29.76,29.76,0,0,1,6.76-5.76A61.76,61.76,0,0,1,30,194.9,111.88,111.88,0,0,1,47.48,192a144.68,144.68,0,0,1,35.28,1.21,108.45,108.45,0,0,1,17.2,4.12A62.41,62.41,0,0,1,115.87,205a34.11,34.11,0,0,1,3.49,2.73c.55.5,1.13,1,1.64,1.5l1.5,1.64c1.94,2.23,3.75,4.54,5.63,6.81,3.74,4.55,7.44,9.14,11.36,13.52a37.5,37.5,0,0,0,6.43,6,9.18,9.18,0,0,0,4,1.6,13,13,0,0,0,4.34-.25,11.86,11.86,0,0,0,4.06-1.57c1.28-.7,2.54-1.47,3.78-2.26,2.49-1.58,4.93-3.21,7.38-4.85,4.9-3.26,9.81-6.53,14.86-9.57,2.53-1.51,5.1-3,7.74-4.28a42.07,42.07,0,0,1,8.22-3.24,12.38,12.38,0,0,1,4.41-.44,7.17,7.17,0,0,1,4,1.83c2.25,2,3.6,4.71,4.84,7.35s2.32,5.42,3.74,8a19.18,19.18,0,0,0,2.51,3.6,9.33,9.33,0,0,0,3.54,2.51,19.25,19.25,0,0,0,8.7.64,27.84,27.84,0,0,0,8.31-2.8,110.93,110.93,0,0,0,14.82-9.59.06.06,0,0,1,.07,0S255.25,223.91,255.22,223.92Z"/></g></g></svg>