<svg xmlns="http://www.w3.org/2000/svg" viewBox="0 0 724.87 488.33"><defs><style>.cls-1{fill:#fff;}</style></defs><title>Asset 15</title><g id="Layer_2" data-name="Layer 2"><g id="Layer_1-2" data-name="Layer 1"><path class="cls-1" d="M303.83,398.94c.81,2-.21,3.65-2.3,3.7-2.25.36-4.64-1.2-5.7-3.52-.92-2,.1-3.67,2.31-3.71A5.68,5.68,0,0,1,303.83,398.94Zm-25.5-4c.56,2,3.32,4.33,5.85,4.89,2.44,1,4.12-.09,3.59-2.12s-3.11-4.33-5.9-5.2c-2.37-.67-4.09.39-3.54,2.43Zm33.08-2.41c-2,.75-2.82,2.7-1.75,5,1,2,3.34,3.26,5.29,2.51a3.41,3.41,0,0,0,1.92-4.69A5.31,5.31,0,0,0,311.41,392.49ZM363.27,2.62C245.7-6.75,135.24,8.9,65,51.57c-70.92,41.8-88.4,111.56-29.65,191C80.41,306.05,158.7,362.31,219,404.2c62.15,42.2,106.25,70,126.84,83.86,4.57,1.76,2.93-5.34.75-11.25-2.24-5.41-14.26-37.19-21-58.06-2.1-.27-33.39,16.67-75.8-28.43.14.12-28.92-29.87-50.48-37.86.4.06-34.64-16.62-9.84-16.46-.2-.06,27.39,2.21,53.93,27,42.25,39.76,60.71,27.34,71.67,20.63-3-16.29,0-27.89,5.52-34.78-28.13-3.06-54.65-6.43-84.74-22.19-29.41-15.8-62.37-44-87.58-97.58-13.3-30.56-8-45.76,10.89-64.35-5.52-7.13-28.47-37.48-11.47-73.45,34.26-5.1,116.71,33.58,116.11,33.44,31.73-4.58,66.77-6.05,101.4-4.59a602.47,602.47,0,0,1,100.94,12.7c-.67-.37,83.78-29.32,117.66-21.13,14.78,33.45-9,59.17-14.8,65.49,18.28,18.19,26.36,32,12.56,59.35C555.48,284.83,522.4,311,492.7,326c-30.32,15-57.26,18.71-85.28,22.15,7.58,8,10.84,23.13,4.65,46.33-8.58,33.52-19.67,72.13-21.78,79.33-1.58,5.9-2.41,12.81,1.92,10.48,19-15.82,60-46.12,119.15-86.9,57.31-40.62,132.85-91.72,177.82-145.59,58.76-67.57,41.91-124.41-28.24-167C590.92,42.36,480.88,12.23,363.27,2.62ZM222.22,354c-.57,1.06,1.27,3.49,4.09,5.47,2.53,1.67,5.06,2.38,5.4,1,.54-1.06-1.18-3.47-4-5.46C225.22,353.29,222.58,352.57,222.22,354Zm-15.78-8.51c.22,1.39,2.31,3.09,4.91,4.13,2.22,1.05,3.9.72,3.63-.77s-2.22-3.08-4.84-4.13C207.78,344.05,206.42,344.38,206.44,345.45Zm52.11,36.93c-.53,1.36,1.81,4.43,4.77,6.33,3.2,2.32,5.6,2.58,5.71.93.27-1.34-1.88-4.4-4.6-6.33C261.33,381,258.65,380.71,258.55,382.38Zm-18.77-15.09c-.78,1.06.92,3.78,3.76,6.14s5.74,3.37,6.22,2.32c.54-1.37-1-4.06-3.82-6.44-2.62-2.37-5.57-3.39-6.16-2Z"/></g></g></svg>