<svg xmlns="http://www.w3.org/2000/svg" viewBox="0 0 299.08 520.61"><defs><style>.cls-1{fill:#fff;}</style></defs><title>Asset 11</title><g id="Layer_2" data-name="Layer 2"><g id="Layer_1-2" data-name="Layer 1"><path class="cls-1" d="M95.55,112.59c-16.41,4.66-28.87,9.64-38.84,19.16-10.14,9.69-14.65,22.5-20.24,34.85C30.8,184,24.29,201.06,19.55,218.85s-4.86,36.21-9.61,54c-1.21-16.62-6.59-32.17-8.58-48.34a208.85,208.85,0,0,1,.39-50.66A243.66,243.66,0,0,1,20.2,105.53C36.39,68.17,59.08,36,95.72,16.28,128.38-1.3,162.79-6,197.87,8.9c20.81,8.82,37,24,50.37,42a262.53,262.53,0,0,1,46,100.37c2.66,11.89,3.5,24.09,4.41,36.27,1.52,20.33-1.8,40.21-3.46,60.3-.85,10.29-7.73,16.38-10.17,25-1.74,6.15-2.67,12.53-4.18,19.9-3.63-4.29-3.05-9.13-3.05-12.81,0-25-5-49.44-6.56-74.25a106.72,106.72,0,0,0-11.34-40.82c-3.53-7.07-10.23-12-15.66-17.82-4.87-5.19-11.44-8.18-16.34-13.67-3.84-4.3-10.75-5.69-15.79-9.13-10-6.83-21.92-8.57-32.61-13.47-.42-.19-1,0-1.49-.08-20.39-3-40.8,0-61.16.47C108.66,111.31,100.21,112.44,95.55,112.59Z"/><path class="cls-1" d="M126.65,315.68c11.8,10.61,23.45,10.13,37.48,1.51,3.29-2,6.43-2.43,8.51,1.22,1.19,2.08,3.4,2.18,4.77,3.31.13,2.49-1.74,3.34-2.78,4.71v7.43c3.33,5,8.42,7.07,13.63,9.11,11.58,4.54,23,9.73,35.13,12.44,8,1.78,15.8-.15,23.19-4.62,14.63-8.87,25.55-20.34,29.66-37.39.45-1.88,1-3.75,1.48-5.62l1.8.42c-1,11-.88,22.26-3.26,32.95-3.23,14.54-9.57,28.41-12.41,43-4.49,23-14.47,43.77-23.89,64.65-7.17,15.87-13.15,32.71-25.46,46a75.82,75.82,0,0,1-27.61,18.81c-16.23,6.57-33.1,8-50.63,6.4-23-2.13-43.33-9.82-59.18-26.62-10-10.56-16.79-23.53-21.76-37.31-7-19.4-14.58-38.61-20.92-58.22-5.94-18.35-11.72-36.79-15.8-55.68-.41-1.9-1.54-4.09,1.86-5.95,1.72,3.18,3.46,6.35,5.16,9.54,2.83,5.3,4.93,11.18,8.61,15.79C41.93,371.19,52.69,372,63.7,369c12.17-3.32,20.7-12.71,30.65-19.69,6.25-4.39,12.22-9.23,20.06-10.68a7.8,7.8,0,0,0,5.06-3.72c7.25-.8,14.33-.33,21.42-3-5.68-7.47-13.74-9.74-21-13.23C121.06,315.68,121.06,315.68,126.65,315.68Zm18.47,29.65c-2.46,3.24-3.88,7-6.67,10.12-8.95,9.9-21.34,12.36-33.15,16.28-9,3-19.19,5.71-21.6,16.39-5.21,23.13,4.17,41.18,27.17,50.94,19.6,8.32,39.8,8.43,60.5,1,19.88-7.09,33.8-18.32,35.91-40.17,1.14-11.76-.65-22.6-16.05-27.43-6.38-2-13-3.12-19.4-4.45C158.36,365.24,150.43,357.23,145.12,345.33Zm29.72-23.28c-8.78-2.11-12.2,3.27-17.29,6.67l4.91,2.95C167.2,330,169.21,325.54,174.84,322.05Z"/><path class="cls-1" d="M169,212.4c8.39-2.58,16.7-5.59,25.23-7.62,9.64-2.31,19.6-1.88,29.48-2.27,11.33-.46,21.12,3.48,30.6,8.62,7.9,4.3,9.13,14.44,3.44,21.2-4.19,5-7.55.41-9.9-1.25-14.9-10.53-31.48-12.14-49-11.06-7.44.46-14.52,3.19-22,2.7C170.59,222.32,168.21,219.68,169,212.4Z"/><path class="cls-1" d="M124.65,213.24c-1,3.33-3.53,3.54-6.34,3.48-17.61-.39-35.22-.55-52.82-1.12-7-.22-13.82.82-20.66,1.94A7.34,7.34,0,0,1,38.57,216c-.29-9,7.28-11.52,13.39-14.17,14.37-6.23,29.49-6.89,44.76-3.53,8,1.76,15.86,4,22.75,8.65C121.75,208.45,123.9,210.38,124.65,213.24Z"/><path class="cls-1" d="M109.52,227.7c-5.87-.76-9.66,2.17-13.28,5.77-7.83,7.78-12.69,10-19.44-2C76,230,75.46,228,72.46,227.58L62.08,239c-3.71-1.88-3.84-5.18-3.72-8.09s2.48-4.92,5.27-5.85c10.33-3.44,21.09-4.89,31.8-6.33C102.13,217.85,108.83,222.28,109.52,227.7Z"/><path class="cls-1" d="M236.46,235.31v4.94c-4.61,1.71-7.31-2.05-10.82-3.5-8.78,1.91-17.15,6.63-26.64,4.76-4.08-12.93-4.08-12.93-1.22-17.36C205.44,221.71,230,228.76,236.46,235.31Z"/><path class="cls-1" d="M129.42,401.27c1.14-3.41,3.69-3.85,5.83-4.08,6.37-.66,12.33-2.79,18.47-4.3,7.7-1.89,15,2.66,14.54,8.79-6.46,3.57-12.89,7.39-19.58,10.7-3.12,1.54-5.48-1.07-7.86-2.89C137.12,406.66,133.26,404,129.42,401.27Z"/></g></g></svg>