<svg xmlns="http://www.w3.org/2000/svg" viewBox="0 0 640 631.68"><defs><style>.cls-1{fill:#376eb6;}</style></defs><title>Asset 12</title><g id="Layer_2" data-name="Layer 2"><g id="Layer_1-2" data-name="Layer 1"><path class="cls-1" d="M0,550.68c13-6.51,26-12.89,38.94-19.55q39.75-20.55,79.36-41.35,30.64-16.09,61.1-32.55c10.1-5.49,15.47-15.66,22.41-24.21,1.1-1.35,1.68-2.89,4.08-2,.33,7.15.67,14.43,1,21.71l.52,0c1,7.95,1.08,16.16,3.22,23.78,2.84,10.12,5.55,20.39,10.36,29.88,2.06,4.07,3.62,8.4,5.75,12.43,4.67,8.79,9.11,17.75,14.49,26.1,4.9,7.6,11.31,14.22,16.33,21.76,7.4,11.1,16.87,20.25,26.62,29,6.92,6.24,15.59,9.83,24.39,13.17,6,2.28,12.35,1.21,18.14,3.68,3.07,1.32,6.3-2.76,9.16.07,6.41-2,12.85-3.36,18.6-6.11,8.9-4.25,17.56-8.95,24.54-16.42,7.51-8.05,15-16.09,20.7-25.49,3.87-6.38,8.74-12.07,11.59-19.25,3.77-9.49,9.87-18.07,13.4-27.62a205.39,205.39,0,0,0,9.09-33.6,229.44,229.44,0,0,0,4.26-47c-.1-4.06-2.25-8-.65-12.15,1.48-.47,2,.57,2.58,1.59,20.16,33.76,51.07,54.6,85.53,71.19,31.37,15.1,64.37,26.72,94.74,44,6.69,3.8,13.17,8,19.75,12v78H310c-.4-3.3-4.42-2.54-5.28-5.53-2.73,1.84-6.87.92-6.72,5.53H0Z"/><path class="cls-1" d="M271,112.59c-16.41,4.66-28.88,9.64-38.84,19.16-10.14,9.69-14.65,22.5-20.25,34.85C206.22,184,199.71,201.06,195,218.85s-4.86,36.21-9.62,54c-1.2-16.62-6.58-32.17-8.57-48.34a209.35,209.35,0,0,1,.38-50.66,244.33,244.33,0,0,1,18.45-68.32c16.2-37.36,38.89-69.52,75.53-89.25C303.81-1.3,338.21-6,373.3,8.9c20.81,8.82,37,24,50.36,42a262.55,262.55,0,0,1,46,100.37c2.65,11.89,3.5,24.09,4.41,36.27,1.52,20.33-1.81,40.21-3.47,60.3-.85,10.29-7.73,16.38-10.16,25-1.74,6.15-2.67,12.53-4.19,19.9-3.62-4.29-3-9.13-3-12.81,0-25-5-49.44-6.56-74.25a106.9,106.9,0,0,0-11.34-40.82c-3.53-7.07-10.24-12-15.66-17.82-4.87-5.19-11.45-8.18-16.34-13.67-3.84-4.3-10.76-5.69-15.79-9.13-10-6.83-21.92-8.57-32.62-13.47-.41-.19-1,0-1.48-.08-20.39-3-40.8,0-61.17.47C284.09,111.31,275.64,112.44,271,112.59Z"/><path class="cls-1" d="M302.08,315.68c11.79,10.61,23.45,10.13,37.47,1.51,3.29-2,6.44-2.43,8.52,1.22,1.18,2.08,3.4,2.18,4.77,3.31.12,2.49-1.74,3.34-2.78,4.71v7.43c3.33,5,8.42,7.07,13.63,9.11,11.58,4.54,23,9.73,35.12,12.44,8,1.78,15.81-.15,23.19-4.62,14.64-8.87,25.55-20.34,29.66-37.39.46-1.88,1-3.75,1.49-5.62l1.79.42c-1,11-.88,22.26-3.25,32.95-3.23,14.54-9.57,28.41-12.42,43-4.48,23-14.46,43.77-23.89,64.65-7.16,15.87-13.14,32.71-25.45,46a75.85,75.85,0,0,1-27.62,18.81c-16.23,6.57-33.1,8-50.62,6.4-23-2.13-43.33-9.82-59.19-26.62-10-10.56-16.79-23.53-21.76-37.31-7-19.4-14.57-38.61-20.92-58.22-5.93-18.35-11.71-36.79-15.8-55.68-.41-1.9-1.54-4.09,1.87-5.95,1.72,3.18,3.45,6.35,5.16,9.54,2.83,5.3,4.93,11.18,8.61,15.79,7.7,9.64,18.45,10.43,29.46,7.43,12.17-3.32,20.7-12.71,30.65-19.69,6.26-4.39,12.23-9.23,20.06-10.68a7.85,7.85,0,0,0,5.07-3.72c7.24-.8,14.32-.33,21.42-3-5.69-7.47-13.75-9.74-21-13.23C296.48,315.68,296.48,315.68,302.08,315.68Zm18.46,29.65c-2.45,3.24-3.88,7-6.66,10.12-8.95,9.9-21.35,12.36-33.15,16.28-9,3-19.2,5.71-21.6,16.39-5.21,23.13,4.16,41.18,27.17,50.94,19.59,8.32,39.79,8.43,60.49,1,19.88-7.09,33.81-18.32,35.92-40.17,1.13-11.76-.66-22.6-16.06-27.43-6.37-2-13-3.12-19.4-4.45C333.78,365.24,325.86,357.23,320.54,345.33Zm29.73-23.28c-8.78-2.11-12.21,3.27-17.3,6.67l4.92,2.95C342.62,330,344.63,325.54,350.27,322.05Z"/><path class="cls-1" d="M344.47,212.4c8.39-2.58,16.69-5.59,25.23-7.62,9.64-2.31,19.6-1.88,29.48-2.27,11.33-.46,21.12,3.48,30.59,8.62,7.9,4.3,9.13,14.44,3.44,21.2-4.18,5-7.54.41-9.9-1.25-14.9-10.53-31.48-12.14-49-11.06-7.44.46-14.52,3.19-22.06,2.7C346,222.32,343.63,219.68,344.47,212.4Z"/><path class="cls-1" d="M300.08,213.24c-1.05,3.33-3.53,3.54-6.35,3.48-17.6-.39-35.22-.55-52.82-1.12-7-.22-13.82.82-20.66,1.94A7.32,7.32,0,0,1,214,216c-.29-9,7.27-11.52,13.39-14.17,14.37-6.23,29.49-6.89,44.76-3.53,8,1.76,15.85,4,22.74,8.65C297.17,208.45,299.33,210.38,300.08,213.24Z"/><path class="cls-1" d="M285,227.7c-5.88-.76-9.67,2.17-13.29,5.77-7.82,7.78-12.68,10-19.43-2-.83-1.47-1.35-3.52-4.34-3.89L237.51,239c-3.72-1.88-3.84-5.18-3.73-8.09s2.48-4.92,5.28-5.85c10.33-3.44,21.08-4.89,31.79-6.33C277.55,217.85,284.25,222.28,285,227.7Z"/><path class="cls-1" d="M411.89,235.31v4.94c-4.62,1.71-7.32-2.05-10.82-3.5-8.78,1.91-17.16,6.63-26.64,4.76-4.08-12.93-4.08-12.93-1.22-17.36C380.86,221.71,405.44,228.76,411.89,235.31Z"/><path class="cls-1" d="M194.25,325.4c-4.28-1.69-6.34-17.29-3.17-23.26C195.67,309.74,193.3,317.64,194.25,325.4Z"/><path class="cls-1" d="M304.84,401.27c1.14-3.41,3.69-3.85,5.84-4.08,6.36-.66,12.33-2.79,18.47-4.3,7.7-1.89,15,2.66,14.54,8.79-6.46,3.57-12.9,7.39-19.59,10.7-3.12,1.54-5.48-1.07-7.85-2.89C312.54,406.66,308.69,404,304.84,401.27Z"/></g></g></svg>