<svg xmlns="http://www.w3.org/2000/svg" viewBox="0 0 448.25 313.53"><defs><style>.cls-1{fill:#fff;}</style></defs><title>Asset 14</title><g id="Layer_2" data-name="Layer 2"><g id="Layer_1-2" data-name="Layer 1"><path class="cls-1" d="M224.18,101.59c-36.23.39-68.37,1.76-90.82,10.62-22.55,8.45-35.4,24.41-35.51,44.58.1,20.17,13,36.12,35.51,44.58C155.8,210.23,188,211.59,224.18,212c36.24-.39,68.37-1.74,90.82-10.61,22.55-8.45,35.4-24.41,35.51-44.59-.11-20.18-13-36.14-35.51-44.6C292.55,103.33,260.41,102,224.18,101.59Zm0,91.09c-46.91.48-83.79-12.71-83.66-35.89-.12-23.18,36.64-36.38,83.66-35.89,47-.5,83.79,12.7,83.66,35.89.13,23.19-36.75,36.38-83.66,35.89ZM381.9,72.8c0,10.68-11.47,22.48-26.58,25.66s-28-1.52-28-9.8,12.88-18.35,28-23.88S381.9,62.16,381.9,72.8Zm65.2-7.74C445.63,30,440.45,3.09,418.24.37c-22.32-2.91-53,15.92-91.31,29.85C307.78,37.84,266,49.75,224.12,49c-41.82.71-83.65-11.2-102.8-18.82C83.07,16.28,52.42-2.54,30,.28,7.8,3,2.7,30,1.16,65c-1.55,35.71-1.55,147.85,0,183.56,1.46,35.06,6.64,62,28.85,64.69,22.42,2.84,53-15.91,91.31-29.86,19.15-7.61,61-19.52,102.81-18.82,41.83-.7,83.65,11.21,102.8,18.82,38.35,14,69,32.85,91.31,29.86,22.13-2.81,27.32-29.68,28.86-64.69,1.54-35.71,1.54-147.75,0-183.46ZM408.12,262c-6.93,12.06-20.61,14.64-40.21,10.3-14.48-3.26-40.49-12.87-68.27-18.67-27.66-6.27-57.08-8.72-75.46-8.57-18.38-.16-47.83,2.28-75.5,8.54-27.79,5.78-53.81,15.39-68.23,18.65-19.52,4.35-33.21,1.79-40.23-10.3-10.31-18-7.84-78.64-7.89-105.14S30,69.64,40.22,51.65C47.15,39.59,60.84,37,80.45,41.35,94.92,44.6,120.94,54.2,148.72,60c27.66,6.26,57.08,8.71,75.46,8.54,18.39.16,47.83-2.29,75.5-8.55,27.79-5.8,53.8-15.41,68.23-18.68,19.5-4.35,33.19-1.79,40.21,10.3,10.31,18,7.84,78.68,7.88,105.19S418.43,244,408.12,262Z"/></g></g></svg>