<svg xmlns="http://www.w3.org/2000/svg" viewBox="0 0 410.71 448"><defs><style>.cls-1{fill:#fff;}</style></defs><title>Asset 13</title><g id="Layer_2" data-name="Layer 2"><g id="Layer_1-2" data-name="Layer 1"><path class="cls-1" d="M397.38,0H13.28c-18.14,0-17,10.4-.76,25.38,113.63,107.16,113.63,290.08,0,397.24C-3.73,437.6-4.86,448,13.28,448h384.1c18.14,0,17.12-10.4.86-25.38-113.63-107.16-113.63-290.08,0-397.24C414.5,10.4,415.52,0,397.38,0ZM139.32,394.57H89.82c36.59-66.16,48.74-152,36.43-231.21H160.2c7,79.22.09,165.05-20.8,231.21Zm-1.16-263.23c-11.54,0-25.41-18.86-34.31-40.41s-5.72-37.5,10.72-37.5,34.1,15.9,38.05,37.5C156.8,112.58,149.64,131.38,138.16,131.34ZM324.9,394.57H275.39c-10.78-32.18-18.06-69-21.84-107.49-3-27.5-3.43-63.92-19.63-63.87-16.63-.06-19.17,30.82-18.58,61.87.78,39.19,2.3,76.75,4.58,109.49H170.41c11.08-66.16,14.75-152,11-231.21H214c-.19,10.82-.32,21.76-.4,32.76H214c4.29-19,16.08-38.66,33-38.64,36-.38,30.19,49.73,38.42,114.88C291,316.12,304.15,358.3,324.9,394.57Z"/></g></g></svg>