<svg xmlns="http://www.w3.org/2000/svg" viewBox="0 0 703.79 1058"><defs><style>.cls-1{fill:#fff;}</style></defs><title>Asset 1</title><g id="Layer_2" data-name="Layer 2"><g id="Layer_1-2" data-name="Layer 1"><path class="cls-1" d="M703.79,1058H493.07a3,3,0,0,1-3-2.43L461.71,923.09a20,20,0,0,0-19.56-15.82H256.22a20,20,0,0,0-19.56,15.89l-27.88,132.41a3,3,0,0,1-3,2.43H0L122.11,604.63H301.37l-23.79,119a25.59,25.59,0,0,0,25.1,30.62h94.13a25.59,25.59,0,0,0,25.1-30.62l-23.79-119H593Z"/><path class="cls-1" d="M581.1,569.58H398.19a4.77,4.77,0,0,1-4.67-3.83L362.44,411.62c-2.81-13.85-22.58-13.85-25.38,0L306,565.75a4.78,4.78,0,0,1-4.68,3.83H134.14a4.77,4.77,0,0,1-4.6-6L245.29,132a4.8,4.8,0,0,1,2-2.73L438.74.81A4.78,4.78,0,0,1,446,3.62l21,84.13a223.62,223.62,0,0,0-50.17-5.35c-42.93,0-61.3-3.65-75.46,21-7.43,12.9-7.15,18.23-7.24,28.58q0,7.58,20.21,45.78c24.4,46.06,50.74,112.71,53.33,125.61s2,11.27,2.85,22.41c.63,10.1,1,20.19,3.79,20.19s11.66-11.05,16.07-23.67q5.72-15.78,5.71-29,0-65.25-38.82-145.74a2.1,2.1,0,0,1,1.61-3,243,243,0,0,1,27.42-1.17c2.73,0,48.28,4.44,54,.63l.67-.42L585.75,563.64A4.79,4.79,0,0,1,581.1,569.58Z"/></g></g></svg>