<svg fill="none" xmlns="http://www.w3.org/2000/svg" viewBox="0 0 282.48 245.99">
<path stroke="5" class="cls-1" d="M116,1A330,330,0,0,0,89.13,23.79a249.36,249.36,0,0,0-24,25.76A146.21,146.21,0,0,0,55.05,63.87a87.77,87.77,0,0,0-7.73,15.6,47.59,47.59,0,0,0-3.19,16.79,28.49,28.49,0,0,0,4.68,15.89A29,29,0,0,0,62,122.1,61.65,61.65,0,0,0,78.72,126c11.51,1.17,23.23.33,34.78-1.26a282.31,282.31,0,0,0,34.31-7.22q16.94-4.6,33.35-10.89a282.34,282.34,0,0,0,31.93-14.32c2.57-1.37,5.07-2.8,7.57-4.3s5-3,7.53-4.55c5-3.08,9.91-6.23,14.73-9.52s9.52-6.7,14-10.37a83.64,83.64,0,0,0,12.16-11.91c3.5-4.31,6.19-9.15,6.88-14.22s-.63-10.28-3.16-15.12c-.3-.61-.64-1.21-1-1.81s-.68-1.2-1.07-1.78S270,17.51,269.57,17l-1.18-1.6a25,25,0,0,0-5.65-5.24A22.31,22.31,0,0,0,248,7l-1,.1-1,.18c-.65.13-1.31.21-2,.38-1.31.35-2.63.65-3.92,1.13a58.45,58.45,0,0,0-7.64,3.23,91.85,91.85,0,0,0-14.2,9.28,172.21,172.21,0,0,0-24.6,24.23q-5.59,6.66-10.78,13.68c-3.45,4.7-6.73,9.43-10,14.34-13.15,19.57-26.39,39.09-40,58.41s-27.38,38.51-42.09,57.12c-7.41,9.27-15,18.42-23.18,27.19-4.1,4.38-8.31,8.68-12.84,12.77s-9.32,8-15.29,11.17c-.74.37-1.52.81-2.24,1.11l-2.19.93c-1.48.58-3,1.17-4.53,1.65a41.3,41.3,0,0,1-9.89,2,26.29,26.29,0,0,1-5.5-.19A20,20,0,0,1,9.44,244a16.91,16.91,0,0,1-5.09-3.92,16.66,16.66,0,0,1-3.13-5.45,20.5,20.5,0,0,1-.8-2.87,23.1,23.1,0,0,1-.35-2.82,26.29,26.29,0,0,1,.18-5.42A38.56,38.56,0,0,1,3,213.7c.65-1.52,1.35-3,2.13-4.45l.59-1.06a12.41,12.41,0,0,1,.68-1.11c.53-.78,1.07-1.56,1.63-2.33A34.43,34.43,0,0,1,16,198a66.08,66.08,0,0,1,17.79-7,115,115,0,0,1,18.18-2.9,147.54,147.54,0,0,1,36.36,1.52,113.38,113.38,0,0,1,17.8,4.47,78.17,78.17,0,0,1,8.63,3.53c1.42.65,2.79,1.46,4.18,2.19s2.72,1.66,4,2.6a38.92,38.92,0,0,1,3.8,3c.6.56,1.23,1.07,1.8,1.68l1.67,1.85c.6.65,1,1.2,1.48,1.78l1.38,1.72,2.75,3.46c3.66,4.59,7.3,9.24,11,13.55a35.32,35.32,0,0,0,5.7,5.53,6,6,0,0,0,2.66,1.17,8,8,0,0,0,1.5.07c.6-.07,1.17-.1,1.85-.24l.49-.08a3,3,0,0,0,.39-.08l.22-.06.37-.15a7.57,7.57,0,0,0,.81-.36c.28-.12.58-.29.88-.44,1.19-.63,2.42-1.36,3.65-2.12,2.46-1.51,4.93-3.09,7.41-4.68,5-3.18,10-6.38,15.14-9.36,2.59-1.49,5.23-2.93,8-4.24a43.29,43.29,0,0,1,8.74-3.25,14.23,14.23,0,0,1,5.16-.39c.24,0,.47,0,.71.09l.74.21a7.39,7.39,0,0,1,.71.24l.64.3a10,10,0,0,1,2.26,1.55,16.29,16.29,0,0,1,3.11,4,38.2,38.2,0,0,1,2.06,4.16c1.21,2.76,2.21,5.5,3.51,8s2.9,4.68,5.16,5.59a7.93,7.93,0,0,0,.86.3c.31.08.67.14,1,.21a17.82,17.82,0,0,0,2.05.32,18.33,18.33,0,0,0,4.12-.07,26.42,26.42,0,0,0,8.06-2.5,108.84,108.84,0,0,0,15-9.09h0a.5.5,0,0,1,.69.13.51.51,0,0,1-.1.68,108.88,108.88,0,0,1-14.66,10.11,28.29,28.29,0,0,1-8.6,3.12,21.64,21.64,0,0,1-4.69.3,22.72,22.72,0,0,1-2.33-.25c-.39-.07-.76-.11-1.17-.2a9.21,9.21,0,0,1-1.24-.36,10.86,10.86,0,0,1-4.2-2.82,21.32,21.32,0,0,1-2.83-3.86c-1.56-2.69-2.71-5.44-4-8s-2.66-5.06-4.49-6.53a6.23,6.23,0,0,0-1.41-.88l-.37-.15c-.12,0-.23,0-.34-.08l-.33-.08c-.12,0-.26,0-.39,0a10.48,10.48,0,0,0-3.57.49,40.9,40.9,0,0,0-7.66,3.23c-2.53,1.32-5,2.8-7.47,4.33-4.92,3.09-9.72,6.42-14.56,9.79-2.42,1.68-4.84,3.38-7.36,5-1.26.83-2.54,1.64-3.92,2.43-.35.2-.69.4-1.08.59s-.73.38-1.19.57l-.65.28-.84.26a4.82,4.82,0,0,1-.68.16l-.59.13c-.76.18-1.67.28-2.53.39a13.49,13.49,0,0,1-2.9-.05,12.58,12.58,0,0,1-5.47-2.07,40.94,40.94,0,0,1-7.21-6.46c-4.12-4.46-7.88-9-11.7-13.48l-2.84-3.38-1.42-1.7c-.47-.55-1-1.17-1.39-1.59L123,212.65c-.44-.46-1-.86-1.46-1.3a33,33,0,0,0-3.15-2.4A58.35,58.35,0,0,0,103.43,202,106.22,106.22,0,0,0,86.9,198.3a142.12,142.12,0,0,0-34.11-.83,105.32,105.32,0,0,0-16.63,2.91,56.16,56.16,0,0,0-14.92,6.08,24.05,24.05,0,0,0-5.41,4.62c-.29.44-.58.87-.89,1.3a5.71,5.71,0,0,0-.47.78L14,214c-.62,1.17-1.16,2.35-1.66,3.54a29.55,29.55,0,0,0-1.94,7.2,16.28,16.28,0,0,0-.08,3.4,12.52,12.52,0,0,0,.2,1.56,11.12,11.12,0,0,0,.4,1.38A6.12,6.12,0,0,0,14,234.68a9.86,9.86,0,0,0,2.67.79,16.44,16.44,0,0,0,3.32.09A30.86,30.86,0,0,0,27.4,234c1.26-.38,2.51-.89,3.77-1.38l1.88-.8c.63-.27,1.13-.58,1.71-.86a69.74,69.74,0,0,0,13.18-9.62c4.24-3.77,8.32-7.85,12.3-12,8-8.41,15.51-17.34,22.88-26.42,14.78-18.15,28.81-37,42.59-56.06s27.19-38.39,40.57-57.77c3.32-4.85,6.8-9.76,10.37-14.52s7.35-9.41,11.24-14a180.2,180.2,0,0,1,26-25A99.53,99.53,0,0,1,229.3,5.75,64.46,64.46,0,0,1,238,2.2,46.88,46.88,0,0,1,242.54.94c.77-.19,1.58-.29,2.36-.44l1.19-.2,1.22-.11a29.14,29.14,0,0,1,19.08,4.34,31.84,31.84,0,0,1,7.2,6.78l1.42,2c.46.66.84,1.31,1.26,2s.8,1.34,1.18,2,.77,1.36,1.11,2.08a37.56,37.56,0,0,1,3.29,9,27.54,27.54,0,0,1,.33,9.92,30.48,30.48,0,0,1-3.09,9.31,44.81,44.81,0,0,1-5.28,7.86,90.26,90.26,0,0,1-13.17,12.65c-4.68,3.78-9.56,7.24-14.5,10.54s-10,6.44-15.06,9.5q-3.81,2.29-7.64,4.52c-2.56,1.49-5.2,3-7.84,4.33a286.17,286.17,0,0,1-32.68,14.25q-16.72,6.12-34,10.57A287.33,287.33,0,0,1,114,128.67c-11.78,1.45-23.76,2.16-35.7.78a64.87,64.87,0,0,1-17.55-4.35,38,38,0,0,1-8-4.54,28.28,28.28,0,0,1-6.43-6.71,27.46,27.46,0,0,1-3.8-8.47,35.49,35.49,0,0,1-1.16-9.1A50.21,50.21,0,0,1,45,78.59a90.45,90.45,0,0,1,8.16-15.91A148.23,148.23,0,0,1,63.6,48.3,250.3,250.3,0,0,1,88.11,22.69,330.65,330.65,0,0,1,115.43.19a.5.5,0,0,1,.7.11A.49.49,0,0,1,116,1Z"/></svg>