<svg xmlns="http://www.w3.org/2000/svg" viewBox="0 0 277.19 239.19" fill='none'>
<path stroke='#fff' class="cls-1" d="M80.31.73C65.68,15.17,50.84,29.85,40.17,47.59,30.69,63.36,23.5,83.31,26.49,102s25.38,21.81,40.87,23.26c20.07,1.89,40.69.11,60.42-3.83A234.56,234.56,0,0,0,183,103c16.38-7.83,31-18.08,46-28.25,12.65-8.6,25.78-17.35,36.18-28.69,7.82-8.54,14.66-19.89,11.11-31.85a23.62,23.62,0,0,0-4-8.14c-1.86-2.23-4.92-3.1-7.71-3.82a40.42,40.42,0,0,0-19,.14C231.28,5.61,218.44,14.1,207.09,23c-28.6,22.43-49.82,52.07-71,81.21-22.69,31.2-44.81,63-71.89,90.63-13.7,14-29.27,30.81-48.88,35.91-2.68.7-6.21,2-8.43-.5-1.19-1.35-1.6-4.54-1.77-6.24-.46-4.56.48-9.64,3.47-13.24,5.51-6.62,16-9.19,23.92-11.27,21.47-5.6,44.88-5.38,66.7-1.9,9.85,1.58,19.63,4.58,27.25,11.27,7.28,6.38,12.28,14.82,18,22.5,5.14,6.88,10.26,10.12,18.58,6,9.64-4.81,18.9-10.68,28.12-16.24q7-4.23,13.91-8.58c3.17-2,5.59-4.15,8.7-.31,1.45,1.78,2.14,4.51,3,6.58,3.15,7.3,7.73,12.58,16,13.73,9.15,1.27,17.49-3.09,25.24-7.38,2.82-1.56.3-5.88-2.52-4.32-8.43,4.67-21.71,11.62-30.11,2.94-4.85-5-5.11-16.51-12.32-19.26-3.06-1.16-5.58.59-8.09,2.17-4.62,2.89-9.23,5.79-13.89,8.62-9.3,5.65-18.7,11.18-28.23,16.45-3.16,1.74-6.66,3.86-10.16,1.52-2-1.34-3.47-3.77-4.88-5.7-2.69-3.67-5.23-7.44-8-11.08-5.07-6.75-10.79-13-18.3-17.08-16.2-8.75-37.61-9.31-55.58-9.1-17.76.21-38.07,2.5-53.81,11.47C5.81,205.4,1.46,210.55.32,217.93-.51,223.31,0,232.09,5,235.55c5.51,3.79,15.48-.89,20.71-3.27,8.32-3.78,15.69-9.4,22.55-15.37a374.07,374.07,0,0,0,39.48-40.53c24.44-28.83,45.48-60.39,68-90.69,19.66-26.43,42.13-53.53,71.12-70.23a72.33,72.33,0,0,1,20-8.27c5.76-1.31,15.27-2.37,20.53,1.29,4.9,3.4,5.49,12.35,4.14,17.57-1.67,6.49-5.9,12.09-10.39,16.91-10.38,11.15-23.33,19.7-35.86,28.21C210.47,81.25,195.92,91.33,179.65,99c-35.23,16.68-77.09,25.72-116,20.78-9.19-1.16-22.1-2.88-28.62-10.27-6.67-7.55-4.24-22.07-2.24-31C37.29,58.29,49.36,40.84,63,25.63c6.65-7.39,13.73-14.38,20.8-21.37C86.13,2,82.6-1.54,80.31.73Z"/></g></g></svg>