
<svg xmlns="http://www.w3.org/2000/svg" viewBox="0 0 277.19 242.93"
>
<path fill ="none" stroke="#191919" stroke-miterlimit="10" 
 stroke-width="3px" class="cls-1" d="M112.1,1.21s-85.8,62.15-71.33,106S169.5,119.65,217.44,91.55c55.44-32.5,68.13-50.41,51.4-75.57-17.9-26.93-59.4-7.93-100.9,53.07-46.2,67.9-106.45,154.59-136,168s-36.78-6.43-25.17-26.34c13.91-23.85,95.65-24.51,117.34,1.95s23.08,29,32.33,27c6.83-1.48,40.5-29.83,51.05-25.73,8.56,3.32,8.57,21.15,18.23,23.28,9.25,2,16.82-1.92,30.72-12.13"
 />
 </svg>